<svg xmlns="http://www.w3.org/2000/svg" xmlns:xlink="http://www.w3.org/1999/xlink" xmlns:lucid="lucid" width="1480" height="560">
    <g transform="translate(-80 -400)" lucid:page-tab-id="0_0">
        <path d="M100 420h160v120H100z" stroke="#000" stroke-width="2" fill="#fff"/>
        <use xlink:href="#a" transform="matrix(1,0,0,1,105,425) translate(10.074999999999989 48.775)"/>
        <use xlink:href="#b" transform="matrix(1,0,0,1,105,425) translate(102.975 48.775)"/>
        <use xlink:href="#c" transform="matrix(1,0,0,1,105,425) translate(59.05 70.375)"/>
        <path d="M350 420h160v120H350z" stroke="#000" stroke-width="2" fill="#fff"/>
        <use xlink:href="#d" transform="matrix(1,0,0,1,355,425) translate(14.549999999999997 48.775)"/>
        <use xlink:href="#e" transform="matrix(1,0,0,1,355,425) translate(78.5 48.775)"/>
        <use xlink:href="#f" transform="matrix(1,0,0,1,355,425) translate(120.45 48.775)"/>
        <use xlink:href="#g" transform="matrix(1,0,0,1,355,425) translate(56.525 70.375)"/>
        <path d="M680 660h160v120H680z" stroke="#000" stroke-width="2" fill="#fff"/>
        <use xlink:href="#h" transform="matrix(1,0,0,1,685,665) translate(16.574999999999996 48.775)"/>
        <use xlink:href="#i" transform="matrix(1,0,0,1,685,665) translate(64.525 48.775)"/>
        <use xlink:href="#j" transform="matrix(1,0,0,1,685,665) translate(37.525 70.375)"/>
        <path d="M680 520h160v120H680z" stroke="#000" stroke-width="2" fill="#fff"/>
        <use xlink:href="#h" transform="matrix(1,0,0,1,685,525) translate(24.099999999999994 48.775)"/>
        <use xlink:href="#k" transform="matrix(1,0,0,1,685,525) translate(72.05 48.775)"/>
        <use xlink:href="#l" transform="matrix(1,0,0,1,685,525) translate(103 48.775)"/>
        <use xlink:href="#j" transform="matrix(1,0,0,1,685,525) translate(37.525 70.375)"/>
        <path d="M1380 440h160v220h-160z" stroke="#000" stroke-width="2" fill="#fff"/>
        <use xlink:href="#m" transform="matrix(1,0,0,1,1385,445) translate(49.55 106.275)"/>
        <path d="M1020 520h160v120h-160z" stroke="#000" stroke-width="2" fill="#fff"/>
        <use xlink:href="#n" transform="matrix(1,0,0,1,1025,525) translate(37.525 48.775)"/>
        <use xlink:href="#o" transform="matrix(1,0,0,1,1025,525) translate(39.775 70.375)"/>
        <path d="M1020 670h160v120h-160z" stroke="#000" stroke-width="2" fill="#fff"/>
        <use xlink:href="#p" transform="matrix(1,0,0,1,1025,675) translate(35.025 48.775)"/>
        <use xlink:href="#q" transform="matrix(1,0,0,1,1025,675) translate(89.975 48.775)"/>
        <use xlink:href="#r" transform="matrix(1,0,0,1,1025,675) translate(41.075 70.375)"/>
        <path d="M1020 820h160v120h-160z" stroke="#000" stroke-width="2" fill="#fff"/>
        <use xlink:href="#p" transform="matrix(1,0,0,1,1025,825) translate(25.549999999999997 59.0875)"/>
        <use xlink:href="#s" transform="matrix(1,0,0,1,1025,825) translate(80.5 59.0875)"/>
        <path d="M842 580h158.5" stroke="#000" stroke-width="2" fill="none"/>
        <path d="M842.03 581H841v-2h1.03z"/>
        <path d="M1015.76 580l-14.26 4.64v-9.28z" stroke="#000" stroke-width="2"/>
        <path d="M1182 580h178.5" stroke="#000" stroke-width="2" fill="none"/>
        <path d="M1182.03 581H1181v-2h1.03z"/>
        <path d="M1375.76 580l-14.26 4.64v-9.28z" stroke="#000" stroke-width="2"/>
        <path d="M512 480h848.5" stroke="#000" stroke-width="2" fill="none"/>
        <path d="M512.04 481H511v-2h1.04z"/>
        <path d="M1375.76 480l-14.26 4.64v-9.28z" stroke="#000" stroke-width="2"/>
        <path d="M1182 879.98l1.32-.03 2.26-.14 2.2-.22 2.17-.32 2.13-.4 2.1-.5 2.1-.6 2.08-.66 2.08-.78 2.1-.88 2.1-1 2.13-1.1 2.17-1.26 2.2-1.4 2.28-1.58 2.34-1.78 2.43-2 2.5-2.28 2.66-2.6 2.8-2.97 2.96-3.44 3.18-4.02 3.46-4.76 3.8-5.73 4.27-7.05 4.93-8.98 5.97-12.06 8.06-18.2 42.47-105.94 5.97-12.06 4.93-8.98 4.27-7.06 3.8-5.74 3.46-4.76 3.18-4.02 2.97-3.45 2.8-2.98 2.64-2.6 2.5-2.27 2.44-2 2.34-1.78 2.27-1.58 2.2-1.42 2.18-1.25 2.13-1.12 2.1-.98 2.1-.88 1.3-.48"
                stroke="#000" stroke-width="2" fill="none"/>
        <path d="M1182.05 880.98l-1.05.02v-2l1-.02z"/>
        <path d="M1375.8 619.23l-13.23 7.03-1.6-9.13z" stroke="#000" stroke-width="2"/>
        <path d="M1182 729.98l3.62-.08 4.36-.27 4.14-.43 3.95-.6 3.8-.7 3.67-.87 3.57-1 3.5-1.13 3.42-1.28 3.4-1.42 3.36-1.6 3.37-1.75 3.4-1.97 3.47-2.2 3.56-2.47 3.7-2.8 3.88-3.2 4.17-3.78 4.62-4.52 5.35-5.7 6.9-8 36.5-45.72 5.35-5.7 4.62-4.54 4.17-3.76 3.9-3.22 3.68-2.8 3.56-2.48 3.46-2.2 3.4-1.96 3.38-1.77 3.37-1.58 3.38-1.43 3.43-1.27 3.5-1.13 3.56-1 3.67-.86 2.47-.47"
                stroke="#000" stroke-width="2" fill="none"/>
        <path d="M1182.05 730.98l-1.05.02v-2l1-.02z"/>
        <path d="M1375.78 600.95l-13.8 5.9-.82-9.25z" stroke="#000" stroke-width="2"/>
        <path d="M262 480h68.5" stroke="#000" stroke-width="2" fill="none"/>
        <path d="M262.03 481H261v-2h1.03z"/>
        <path d="M345.76 480l-14.26 4.64v-9.28z" stroke="#000" stroke-width="2"/>
        <path d="M512 524.7h1.23l2.16.15 2.1.22 2.05.3 2.02.4 2 .45 1.95.55 1.95.64 1.95.73 1.94.82 1.96.92 1.98 1.04 2 1.16 2.05 1.3 2.1 1.46 2.14 1.63 2.22 1.84 2.32 2.08 2.42 2.38 2.57 2.73 2.73 3.16 2.95 3.72 3.23 4.44 3.6 5.4 4.1 6.83 4.98 9.07 6.74 13.62 33.85 74.8 4.96 9.08 4.12 6.8 3.6 5.42 3.2 4.44 2.96 3.72 2.73 3.17 2.57 2.74 2.42 2.4 2.32 2.07 2.23 1.85 2.16 1.63 2.1 1.46 2.03 1.3 2 1.16 1.98 1.03 1.96.92 1.94.82.33.12"
                stroke="#000" stroke-width="2" fill="none"/>
        <path d="M512.05 523.7l-.04 2-1-.03v-2z"/>
        <path d="M675.82 719.4l-14.87 1.98 1.68-9.12z" stroke="#000" stroke-width="2"/>
        <path d="M512 500.7l4.36.08 4.94.3 4.6.5 4.33.63 4.1.8 3.9.9 3.76 1.05 3.64 1.2 3.56 1.3 3.52 1.5 3.5 1.64 3.55 1.85 3.63 2.1 3.8 2.4 4.06 2.83 4.57 3.48 5.6 4.65 10.2 9.27 16.93 15.6 5.6 4.64 4.58 3.48 4.07 2.84 3.8 2.4 3.63 2.1 3.54 1.85 3.5 1.65 3.53 1.48 3.56 1.33 3.65 1.18 3.76 1.06 3.9.92 4.1.78.8.12"
                stroke="#000" stroke-width="2" fill="none"/>
        <path d="M512.05 499.7l-.04 2-1-.03v-2z"/>
        <path d="M675.77 579.75l-14.58 3.52.7-9.24z" stroke="#000" stroke-width="2"/>
        <path d="M842 719.98l3.84-.08 4.5-.28 4.26-.45 4.03-.6 3.85-.73 3.7-.86 3.56-1 3.48-1.13 3.4-1.26 3.36-1.43 3.34-1.57 3.35-1.75 3.4-1.96 3.47-2.22 3.6-2.5 3.83-2.9 4.15-3.45 4.73-4.26 5.88-5.77L926.7 674l17.57-19.13 5.88-5.77 4.73-4.26 4.15-3.44 3.82-2.9 3.6-2.52 3.5-2.2 3.38-1.96 3.35-1.75 3.34-1.58 3.36-1.42 3.4-1.26 3.48-1.13 3.57-1 3.7-.88 3.06-.58"
                stroke="#000" stroke-width="2" fill="none"/>
        <path d="M842.05 720.98L841 721v-2l1-.02z"/>
        <path d="M1015.78 620.94l-13.82 5.83-.8-9.23z" stroke="#000" stroke-width="2"/>
        <path d="M261.9 523.78l13.6 6.85 14.48 8.05 14.6 8.95 14.94 10.03 15.55 11.43 16.6 13.3 18.44 16.1 22.03 20.9 32.83 34.04 96.47 103.65L544.5 779l15.5 13.67 9.6 7.82 9.8 7.33 10.08 6.9 10.44 6.53 10.9 6.2 11.47 5.88 12.15 5.62 13.04 5.38 14.12 5.14 15.53 4.92 17.35 4.7 19.78 4.5 23.2 4.24 28.37 3.97 37.08 3.6 55.98 3.04 141.6 1.38"
                stroke="#000" stroke-width="2" fill="none"/>
        <path d="M262.37 522.9l-.9 1.8-.47-.25v-2.24z"/>
        <path d="M1015.76 879.97l-14.3 4.5.08-9.28z" stroke="#000" stroke-width="2"/>
        <path d="M842 746h158.5" stroke="#000" stroke-width="2" fill="none"/>
        <path d="M842.03 747H841v-2h1.03z"/>
        <path d="M1015.76 746l-14.26 4.64v-9.28z" stroke="#000" stroke-width="2"/>
        <defs>
            <path d="M30 0v-248h187v28H63v79h144v27H63v87h162V0H30" id="t"/>
            <path d="M117-194c89-4 53 116 60 194h-32v-121c0-31-8-49-39-48C34-167 62-67 57 0H25l-1-190h30c1 10-1 24 2 32 11-22 29-35 61-36"
                    id="u"/>
            <path d="M84 4C-5 8 30-112 23-190h32v120c0 31 7 50 39 49 72-2 45-101 50-169h31l1 190h-30c-1-10 1-25-2-33-11 22-28 36-60 37"
                    id="v"/>
            <path d="M210-169c-67 3-38 105-44 169h-31v-121c0-29-5-50-35-48C34-165 62-65 56 0H25l-1-190h30c1 10-1 24 2 32 10-44 99-50 107 0 11-21 27-35 58-36 85-2 47 119 55 194h-31v-121c0-29-5-49-35-48"
                    id="w"/>
            <path d="M100-194c63 0 86 42 84 106H49c0 40 14 67 53 68 26 1 43-12 49-29l28 8c-11 28-37 45-77 45C44 4 14-33 15-96c1-61 26-98 85-98zm52 81c6-60-76-77-97-28-3 7-6 17-6 28h103"
                    id="x"/>
            <path d="M114-163C36-179 61-72 57 0H25l-1-190h30c1 12-1 29 2 39 6-27 23-49 58-41v29" id="y"/>
            <path d="M141-36C126-15 110 5 73 4 37 3 15-17 15-53c-1-64 63-63 125-63 3-35-9-54-41-54-24 1-41 7-42 31l-33-3c5-37 33-52 76-52 45 0 72 20 72 64v82c-1 20 7 32 28 27v20c-31 9-61-2-59-35zM48-53c0 20 12 33 32 33 41-3 63-29 60-74-43 2-92-5-92 41"
                    id="z"/>
            <path d="M59-47c-2 24 18 29 38 22v24C64 9 27 4 27-40v-127H5v-23h24l9-43h21v43h35v23H59v120" id="A"/>
            <g id="a">
                <use transform="matrix(0.05,0,0,0.05,0,0)" xlink:href="#t"/>
                <use transform="matrix(0.05,0,0,0.05,12,0)" xlink:href="#u"/>
                <use transform="matrix(0.05,0,0,0.05,22,0)" xlink:href="#v"/>
                <use transform="matrix(0.05,0,0,0.05,32,0)" xlink:href="#w"/>
                <use transform="matrix(0.05,0,0,0.05,46.95,0)" xlink:href="#x"/>
                <use transform="matrix(0.05,0,0,0.05,56.95,0)" xlink:href="#y"/>
                <use transform="matrix(0.05,0,0,0.05,62.900000000000006,0)" xlink:href="#z"/>
                <use transform="matrix(0.05,0,0,0.05,72.9,0)" xlink:href="#A"/>
                <use transform="matrix(0.05,0,0,0.05,77.9,0)" xlink:href="#x"/>
            </g>
            <path d="M240 0l2-218c-23 76-54 145-80 218h-23L58-218 59 0H30v-248h44l77 211c21-75 51-140 76-211h43V0h-30" id="B"/>
            <path d="M30-248c87 1 191-15 191 75 0 78-77 80-158 76V0H30v-248zm33 125c57 0 124 11 124-50 0-59-68-47-124-48v98"
                    id="C"/>
            <path d="M126-127c33 6 58 20 58 59 0 88-139 92-164 29-3-8-5-16-6-25l32-3c6 27 21 44 54 44 32 0 52-15 52-46 0-38-36-46-79-43v-28c39 1 72-4 72-42 0-27-17-43-46-43-28 0-47 15-49 41l-32-3c6-42 35-63 81-64 48-1 79 21 79 65 0 36-21 52-52 59"
                    id="D"/>
            <g id="b">
                <use transform="matrix(0.05,0,0,0.05,0,0)" xlink:href="#B"/>
                <use transform="matrix(0.05,0,0,0.05,14.950000000000001,0)" xlink:href="#C"/>
                <use transform="matrix(0.05,0,0,0.05,26.950000000000003,0)" xlink:href="#D"/>
            </g>
            <path d="M101-234c-31-9-42 10-38 44h38v23H63V0H32v-167H5v-23h27c-7-52 17-82 69-68v24" id="E"/>
            <path d="M24-231v-30h32v30H24zM24 0v-190h32V0H24" id="F"/>
            <path d="M24 0v-261h32V0H24" id="G"/>
            <path d="M135-143c-3-34-86-38-87 0 15 53 115 12 119 90S17 21 10-45l28-5c4 36 97 45 98 0-10-56-113-15-118-90-4-57 82-63 122-42 12 7 21 19 24 35"
                    id="H"/>
            <g id="c">
                <use transform="matrix(0.05,0,0,0.05,0,0)" xlink:href="#E"/>
                <use transform="matrix(0.05,0,0,0.05,5,0)" xlink:href="#F"/>
                <use transform="matrix(0.05,0,0,0.05,8.95,0)" xlink:href="#G"/>
                <use transform="matrix(0.05,0,0,0.05,12.899999999999999,0)" xlink:href="#x"/>
                <use transform="matrix(0.05,0,0,0.05,22.9,0)" xlink:href="#H"/>
            </g>
            <path d="M96-169c-40 0-48 33-48 73s9 75 48 75c24 0 41-14 43-38l32 2c-6 37-31 61-74 61-59 0-76-41-82-99-10-93 101-131 147-64 4 7 5 14 7 22l-32 3c-4-21-16-35-41-35"
                    id="I"/>
            <path d="M100-194c62-1 85 37 85 99 1 63-27 99-86 99S16-35 15-95c0-66 28-99 85-99zM99-20c44 1 53-31 53-75 0-43-8-75-51-75s-53 32-53 75 10 74 51 75"
                    id="J"/>
            <path d="M108 0H70L1-190h34L89-25l56-165h34" id="K"/>
            <g id="d">
                <use transform="matrix(0.05,0,0,0.05,0,0)" xlink:href="#I"/>
                <use transform="matrix(0.05,0,0,0.05,9,0)" xlink:href="#J"/>
                <use transform="matrix(0.05,0,0,0.05,19,0)" xlink:href="#u"/>
                <use transform="matrix(0.05,0,0,0.05,29,0)" xlink:href="#K"/>
                <use transform="matrix(0.05,0,0,0.05,38,0)" xlink:href="#x"/>
                <use transform="matrix(0.05,0,0,0.05,48,0)" xlink:href="#y"/>
                <use transform="matrix(0.05,0,0,0.05,53.95,0)" xlink:href="#A"/>
            </g>
            <g id="e">
                <use transform="matrix(0.05,0,0,0.05,0,0)" xlink:href="#B"/>
                <use transform="matrix(0.05,0,0,0.05,14.950000000000001,0)" xlink:href="#C"/>
                <use transform="matrix(0.05,0,0,0.05,26.950000000000003,0)" xlink:href="#D"/>
            </g>
            <g id="f">
                <use transform="matrix(0.05,0,0,0.05,0,0)" xlink:href="#A"/>
                <use transform="matrix(0.05,0,0,0.05,5,0)" xlink:href="#J"/>
            </g>
            <path d="M155-56V0h-30v-56H8v-25l114-167h33v167h35v25h-35zm-30-156c-27 46-58 90-88 131h88v-131" id="L"/>
            <path d="M205 0l-28-72H64L36 0H1l101-248h38L239 0h-34zm-38-99l-47-123c-12 45-31 82-46 123h93" id="M"/>
            <g id="g">
                <use transform="matrix(0.05,0,0,0.05,0,0)" xlink:href="#B"/>
                <use transform="matrix(0.05,0,0,0.05,14.950000000000001,0)" xlink:href="#L"/>
                <use transform="matrix(0.05,0,0,0.05,24.950000000000003,0)" xlink:href="#M"/>
            </g>
            <path d="M233-177c-1 41-23 64-60 70L243 0h-38l-65-103H63V0H30v-248c88 3 205-21 203 71zM63-129c60-2 137 13 137-47 0-61-80-42-137-45v92"
                    id="N"/>
            <path d="M85-194c31 0 48 13 60 33l-1-100h32l1 261h-30c-2-10 0-23-3-31C134-8 116 4 85 4 32 4 16-35 15-94c0-66 23-100 70-100zm9 24c-40 0-46 34-46 75 0 40 6 74 45 74 42 0 51-32 51-76 0-42-9-74-50-73"
                    id="O"/>
            <g id="h">
                <use transform="matrix(0.05,0,0,0.05,0,0)" xlink:href="#N"/>
                <use transform="matrix(0.05,0,0,0.05,12.950000000000001,0)" xlink:href="#x"/>
                <use transform="matrix(0.05,0,0,0.05,22.950000000000003,0)" xlink:href="#z"/>
                <use transform="matrix(0.05,0,0,0.05,32.95,0)" xlink:href="#O"/>
            </g>
            <g id="i">
                <use transform="matrix(0.05,0,0,0.05,0,0)" xlink:href="#I"/>
                <use transform="matrix(0.05,0,0,0.05,9,0)" xlink:href="#J"/>
                <use transform="matrix(0.05,0,0,0.05,19,0)" xlink:href="#w"/>
                <use transform="matrix(0.05,0,0,0.05,33.95,0)" xlink:href="#w"/>
                <use transform="matrix(0.05,0,0,0.05,48.900000000000006,0)" xlink:href="#J"/>
                <use transform="matrix(0.05,0,0,0.05,58.900000000000006,0)" xlink:href="#u"/>
            </g>
            <g id="j">
                <use transform="matrix(0.05,0,0,0.05,0,0)" xlink:href="#w"/>
                <use transform="matrix(0.05,0,0,0.05,14.950000000000001,0)" xlink:href="#x"/>
                <use transform="matrix(0.05,0,0,0.05,24.950000000000003,0)" xlink:href="#A"/>
                <use transform="matrix(0.05,0,0,0.05,29.950000000000003,0)" xlink:href="#z"/>
                <use transform="matrix(0.05,0,0,0.05,39.95,0)" xlink:href="#O"/>
                <use transform="matrix(0.05,0,0,0.05,49.95,0)" xlink:href="#z"/>
                <use transform="matrix(0.05,0,0,0.05,59.95,0)" xlink:href="#A"/>
                <use transform="matrix(0.05,0,0,0.05,64.95,0)" xlink:href="#z"/>
            </g>
            <path d="M115-194c55 1 70 41 70 98S169 2 115 4C84 4 66-9 55-30l1 105H24l-1-265h31l2 30c10-21 28-34 59-34zm-8 174c40 0 45-34 45-75s-6-73-45-74c-42 0-51 32-51 76 0 43 10 73 51 73"
                    id="P"/>
            <g id="k">
                <use transform="matrix(0.05,0,0,0.05,0,0)" xlink:href="#P"/>
                <use transform="matrix(0.05,0,0,0.05,10,0)" xlink:href="#x"/>
                <use transform="matrix(0.05,0,0,0.05,20,0)" xlink:href="#y"/>
            </g>
            <g id="l">
                <use transform="matrix(0.05,0,0,0.05,0,0)" xlink:href="#E"/>
                <use transform="matrix(0.05,0,0,0.05,5,0)" xlink:href="#F"/>
                <use transform="matrix(0.05,0,0,0.05,8.95,0)" xlink:href="#G"/>
                <use transform="matrix(0.05,0,0,0.05,12.899999999999999,0)" xlink:href="#x"/>
            </g>
            <path d="M177-190C167-65 218 103 67 71c-23-6-38-20-44-43l32-5c15 47 100 32 89-28v-30C133-14 115 1 83 1 29 1 15-40 15-95c0-56 16-97 71-98 29-1 48 16 59 35 1-10 0-23 2-32h30zM94-22c36 0 50-32 50-73 0-42-14-75-50-75-39 0-46 34-46 75s6 73 46 73"
                    id="Q"/>
            <g id="m">
                <use transform="matrix(0.05,0,0,0.05,0,0)" xlink:href="#B"/>
                <use transform="matrix(0.05,0,0,0.05,14.950000000000001,0)" xlink:href="#x"/>
                <use transform="matrix(0.05,0,0,0.05,24.950000000000003,0)" xlink:href="#y"/>
                <use transform="matrix(0.05,0,0,0.05,30.900000000000002,0)" xlink:href="#Q"/>
                <use transform="matrix(0.05,0,0,0.05,40.900000000000006,0)" xlink:href="#x"/>
            </g>
            <path d="M143 4C61 4 22-44 18-125c-5-107 100-154 193-111 17 8 29 25 37 43l-32 9c-13-25-37-40-76-40-61 0-88 39-88 99 0 61 29 100 91 101 35 0 62-11 79-27v-45h-74v-28h105v86C228-13 192 4 143 4"
                    id="R"/>
            <g id="n">
                <use transform="matrix(0.05,0,0,0.05,0,0)" xlink:href="#R"/>
                <use transform="matrix(0.05,0,0,0.05,14,0)" xlink:href="#x"/>
                <use transform="matrix(0.05,0,0,0.05,24,0)" xlink:href="#u"/>
                <use transform="matrix(0.05,0,0,0.05,34,0)" xlink:href="#x"/>
                <use transform="matrix(0.05,0,0,0.05,44,0)" xlink:href="#y"/>
                <use transform="matrix(0.05,0,0,0.05,49.95,0)" xlink:href="#z"/>
                <use transform="matrix(0.05,0,0,0.05,59.95,0)" xlink:href="#A"/>
                <use transform="matrix(0.05,0,0,0.05,64.95,0)" xlink:href="#x"/>
            </g>
            <path d="M63-220v92h138v28H63V0H30v-248h175v28H63" id="S"/>
            <path d="M127-220V0H93v-220H8v-28h204v28h-85" id="T"/>
            <g id="o">
                <use transform="matrix(0.05,0,0,0.05,0,0)" xlink:href="#S"/>
                <use transform="matrix(0.05,0,0,0.05,10.950000000000001,0)" xlink:href="#S"/>
                <use transform="matrix(0.05,0,0,0.05,21.900000000000002,0)" xlink:href="#B"/>
                <use transform="matrix(0.05,0,0,0.05,36.85,0)" xlink:href="#t"/>
                <use transform="matrix(0.05,0,0,0.05,48.85,0)" xlink:href="#T"/>
                <use transform="matrix(0.05,0,0,0.05,58.45,0)" xlink:href="#M"/>
            </g>
            <path d="M185-189c-5-48-123-54-124 2 14 75 158 14 163 119 3 78-121 87-175 55-17-10-28-26-33-46l33-7c5 56 141 63 141-1 0-78-155-14-162-118-5-82 145-84 179-34 5 7 8 16 11 25"
                    id="U"/>
            <g id="p">
                <use transform="matrix(0.05,0,0,0.05,0,0)" xlink:href="#U"/>
                <use transform="matrix(0.05,0,0,0.05,12,0)" xlink:href="#x"/>
                <use transform="matrix(0.05,0,0,0.05,22,0)" xlink:href="#G"/>
                <use transform="matrix(0.05,0,0,0.05,25.950000000000003,0)" xlink:href="#x"/>
                <use transform="matrix(0.05,0,0,0.05,35.95,0)" xlink:href="#I"/>
                <use transform="matrix(0.05,0,0,0.05,44.95,0)" xlink:href="#A"/>
            </g>
            <g id="q">
                <use transform="matrix(0.05,0,0,0.05,0,0)" xlink:href="#J"/>
                <use transform="matrix(0.05,0,0,0.05,10,0)" xlink:href="#v"/>
                <use transform="matrix(0.05,0,0,0.05,20,0)" xlink:href="#A"/>
            </g>
            <g id="r">
                <use transform="matrix(0.05,0,0,0.05,0,0)" xlink:href="#E"/>
                <use transform="matrix(0.05,0,0,0.05,5,0)" xlink:href="#F"/>
                <use transform="matrix(0.05,0,0,0.05,8.95,0)" xlink:href="#G"/>
                <use transform="matrix(0.05,0,0,0.05,12.899999999999999,0)" xlink:href="#x"/>
                <use transform="matrix(0.05,0,0,0.05,22.9,0)" xlink:href="#u"/>
                <use transform="matrix(0.05,0,0,0.05,32.9,0)" xlink:href="#z"/>
                <use transform="matrix(0.05,0,0,0.05,42.9,0)" xlink:href="#w"/>
                <use transform="matrix(0.05,0,0,0.05,57.85,0)" xlink:href="#x"/>
            </g>
            <g id="s">
                <use transform="matrix(0.05,0,0,0.05,0,0)" xlink:href="#I"/>
                <use transform="matrix(0.05,0,0,0.05,9,0)" xlink:href="#J"/>
                <use transform="matrix(0.05,0,0,0.05,19,0)" xlink:href="#K"/>
                <use transform="matrix(0.05,0,0,0.05,28,0)" xlink:href="#x"/>
                <use transform="matrix(0.05,0,0,0.05,38,0)" xlink:href="#y"/>
            </g>
        </defs>
    </g>
</svg>